{"title":"Rat Race (2001) - DVDRip - MP3 - ENG","uid":4430905,"size":735380783,"categoryP":"video","categoryS":"movies","magnet":"?xt=urn:btih:a4dac62c60f9fcb7482a61d91cb6fb9003b68339&amp;dn=Rat+Race+%282001%29+-+DVDRip+-+MP3+-+ENG&amp;tr=udp%3A%2F%2Ftracker.openbittorrent.com%3A80&amp;tr=udp%3A%2F%2Fopen.demonii.com%3A1337&amp;tr=udp%3A%2F%2Ftracker.coppersurfer.tk%3A6969&amp;tr=udp%3A%2F%2Fexodus.desync.com%3A6969","seeders":4,"leechers":0,"uploader":"206andy206","files":-1,"time":1223287192,"description":"\nIMDB: http://www.imdb.com/title/tt0250687\nUser Rating: 6.3/10 (31,472 votes)\nRelease Date: 11 January 2002 (UK)\nGenre: Adventure | Comedy\nTagline: 563 miles. 9 people. $2 million. 1001 problems!\n\nPlot:\nJohn Cleese stars as an eccentric casino owner who devises a contest pitting six teams against\neach other in a race to claim two million dollars from a locker in New Mexico. \n\nCast:\nBreckin Meyer   \t... \tNick Schaffer\nJenica Bergere   \t... \tHotel Clerk\nCuba Gooding Jr.\t... \tOwen Templeton\nCarrie Diamond  \t... \tCasino Bartender\nDouglas Haase   \t... \tGuy at Bar\nChris Myers     \t... \tFox Sportscaster\nKevin Frazier   \t... \tFox Sportscaster\nSeth Green      \t... \tDuane Cody\nGloria Allred   \t... \tHerself\nVince Vieluf    \t... \tBlaine Cody\nRenÃƒÂ©e Lee       \t... \tWitness in Crowd\nCorinna Harney   \t... \tCocktail Waitress (as Corinna Harney Jones)\nJane C. Walsh   \t... \tCocktail Waitress\nWhoopi Goldberg \t... \tVera Baker\nLanei Chapman   \t... \tMerrill Jennings (as Lanai Chapman)\n\n\n\nGeneral\nComplete name                    : Rat Race (2001) - DVDRip - MP3 - ENG.avi\nFormat                           : AVI\nSource                           : PAL DVD\nFile size                        : 701 MiB\nDuration                         : 1h 47mn\nOveral bit rate                  : 912 Kbps\nIAS1                             : English\n\nVideo\nFormat                           : MPEG-4 Visual\nCodec ID                         : XviD\nDuration                         : 1h 47mn\nBit rate                         : 793 Kbps\nWidth                            : 608 pixels\nHeight                           : 256 pixels\nDisplay aspect ratio             : 2.35\nFrame rate                       : 25.000 fps\nResolution                       : 8 bits\nColorimetry                      : 4:2:0\nScan type                        : Progressive\nBits/(Pixel*Frame)               : 0.204\nStream size                      : 610 MiB (87%)\n\nAudio\nFormat                           : MPEG Audio\nFormat version                   : Version 1\nFormat profile                   : Layer 3\nCodec ID                         : 55\nCodec ID/Hint                    : MP3\nDuration                         : 1h 47mn\nBit rate mode                    : Constant\nBit rate                         : 112 Kbps\nChannel(s)                       : 2 channels\nSampling rate                    : 44.1 KHz\nResolution                       : 16 bits\nStream size                      : 86.1 MiB (12%)\nWriting library                  : LAME3.97 \nEncoding settings                : CBR\n\n\n\nTrackers:\n &lt;a href=&quot;\nhttp://tpb.tracker.thepiratebay.se:80/announce&quot; rel=&quot;nofollow&quot; target=&quot;_NEW&quot;&gt;\nhttp://tpb.tracker.thepiratebay.se:80/announce&lt;/a&gt; &lt;a href=&quot;\nhttp://www.torrent-downloads.to:5869/announce&quot; rel=&quot;nofollow&quot; target=&quot;_NEW&quot;&gt;\nhttp://www.torrent-downloads.to:5869/announce&lt;/a&gt; &lt;a href=&quot;\nhttp://open.tracker.thepiratebay.se:80/announce&quot; rel=&quot;nofollow&quot; target=&quot;_NEW&quot;&gt;\nhttp://open.tracker.thepiratebay.se:80/announce&lt;/a&gt; &lt;a href=&quot;\nhttp://vip.tracker.thepiratebay.se/announce&quot; rel=&quot;nofollow&quot; target=&quot;_NEW&quot;&gt;\nhttp://vip.tracker.thepiratebay.se/announce&lt;/a&gt;\n\n\nInfo Hash:\n\nA4DAC62C60F9FCB7482A61D91CB6FB9003B68339","torrent":{"xt":"urn:btih:a4dac62c60f9fcb7482a61d91cb6fb9003b68339","amp;dn":"Rat+Race+%282001%29+-+DVDRip+-+MP3+-+ENG","amp;tr":["udp%3A%2F%2Ftracker.openbittorrent.com%3A80","udp%3A%2F%2Fopen.demonii.com%3A1337","udp%3A%2F%2Ftracker.coppersurfer.tk%3A6969","udp%3A%2F%2Fexodus.desync.com%3A6969"],"infoHash":"a4dac62c60f9fcb7482a61d91cb6fb9003b68339","infoHashBuffer":{"type":"Buffer","data":[164,218,198,44,96,249,252,183,72,42,97,217,28,182,251,144,3,182,131,57]},"announce":[],"urlList":[]}}